<?xml version="1.0" encoding="utf-8"?>
<!-- Generator: Adobe Illustrator 16.0.4, SVG Export Plug-In . SVG Version: 6.00 Build 0)  -->
<!DOCTYPE svg PUBLIC "-//W3C//DTD SVG 1.1//EN" "http://www.w3.org/Graphics/SVG/1.1/DTD/svg11.dtd">
<svg version="1.1" id="Layer_1" xmlns="http://www.w3.org/2000/svg" xmlns:xlink="http://www.w3.org/1999/xlink" x="0px" y="0px"
	 width="278.099px" height="112px" viewBox="0 0 278.099 112" enable-background="new 0 0 278.099 112" xml:space="preserve">
<g>
	<g>
		<path fill="#4C4C4C" d="M108.455,36.059h5.191v8.528h4.878v4.193h-4.878v19.938c0,1.064,0.361,1.778,1.084,2.14
			c0.399,0.209,1.065,0.313,1.997,0.313c0.246,0,0.513-0.006,0.798-0.019s0.618-0.045,0.999-0.096v4.079
			c-0.59,0.171-1.203,0.295-1.84,0.37c-0.637,0.076-1.327,0.114-2.068,0.114c-2.396,0-4.022-0.612-4.878-1.84
			c-0.855-1.226-1.283-2.818-1.283-4.777V48.78h-4.136v-4.193h4.136V36.059z"/>
		<path fill="#4C4C4C" d="M142.526,45.429c2.023,1.018,3.562,2.334,4.622,3.951c1.022,1.54,1.702,3.337,2.042,5.39
			c0.302,1.408,0.455,3.652,0.455,6.733h-22.222c0.095,3.106,0.821,5.602,2.179,7.479c1.359,1.879,3.463,2.818,6.312,2.818
			c2.66,0,4.782-0.89,6.367-2.666c0.889-1.03,1.518-2.225,1.885-3.581h5.05c-0.133,1.122-0.575,2.372-1.327,3.75
			c-0.751,1.38-1.589,2.507-2.514,3.381c-1.548,1.521-3.462,2.548-5.746,3.081c-1.227,0.303-2.614,0.456-4.162,0.456
			c-3.779,0-6.983-1.384-9.61-4.15c-2.626-2.768-3.939-6.641-3.939-11.624c0-4.906,1.323-8.89,3.969-11.951
			c2.646-3.062,6.104-4.593,10.376-4.593C138.417,43.902,140.505,44.411,142.526,45.429z M144.367,57.423
			c-0.206-2.225-0.688-4.002-1.444-5.334c-1.395-2.472-3.723-3.708-6.984-3.708c-2.338,0-4.3,0.852-5.884,2.553
			c-1.583,1.703-2.423,3.865-2.517,6.489H144.367z"/>
		<path fill="#4C4C4C" d="M156.146,44.587h4.88v4.336c1.443-1.787,2.975-3.071,4.591-3.851c1.615-0.779,3.413-1.17,5.392-1.17
			c4.337,0,7.264,1.513,8.785,4.535c0.837,1.655,1.256,4.022,1.256,7.103v19.597h-5.221V55.883c0-1.863-0.274-3.366-0.826-4.507
			c-0.913-1.901-2.567-2.853-4.963-2.853c-1.219,0-2.217,0.124-2.996,0.371c-1.407,0.419-2.645,1.255-3.708,2.51
			c-0.854,1.008-1.412,2.049-1.67,3.123c-0.257,1.075-0.383,2.61-0.383,4.607v16.002h-5.137V44.587z"/>
		<path fill="#4C4C4C" d="M205.009,56.648c1.179-0.152,1.969-0.645,2.367-1.48c0.229-0.458,0.343-1.117,0.343-1.976
			c0-1.757-0.621-3.03-1.864-3.823c-1.245-0.791-3.021-1.188-5.337-1.188c-2.677,0-4.573,0.727-5.693,2.178
			c-0.628,0.804-1.035,1.998-1.225,3.584h-4.792c0.095-3.776,1.314-6.402,3.659-7.881c2.347-1.479,5.069-2.217,8.164-2.217
			c3.59,0,6.506,0.685,8.745,2.054c2.225,1.37,3.335,3.499,3.335,6.391v17.6c0,0.533,0.109,0.96,0.326,1.283
			c0.22,0.322,0.682,0.483,1.387,0.483c0.228,0,0.483-0.014,0.769-0.042c0.285-0.029,0.59-0.071,0.913-0.128v3.793
			c-0.798,0.228-1.408,0.37-1.826,0.428c-0.419,0.058-0.989,0.086-1.71,0.086c-1.769,0-3.054-0.628-3.852-1.882
			c-0.419-0.667-0.714-1.607-0.884-2.823c-1.049,1.369-2.549,2.557-4.506,3.564c-1.961,1.007-4.119,1.511-6.477,1.511
			c-2.834,0-5.149-0.859-6.946-2.578c-1.797-1.718-2.693-3.869-2.693-6.452c0-2.831,0.884-5.024,2.649-6.581
			c1.77-1.557,4.089-2.517,6.963-2.878L205.009,56.648z M194.199,70.519c1.084,0.854,2.367,1.281,3.851,1.281
			c1.807,0,3.555-0.418,5.25-1.254c2.852-1.386,4.277-3.654,4.277-6.806v-4.13c-0.628,0.4-1.434,0.734-2.42,1.002
			c-0.987,0.268-1.954,0.457-2.903,0.571l-3.104,0.398c-1.857,0.247-3.258,0.636-4.195,1.168c-1.587,0.892-2.38,2.314-2.38,4.269
			C192.574,68.498,193.114,69.665,194.199,70.519z"/>
		<path fill="#4C4C4C" d="M221.125,44.587h4.879v4.336c1.444-1.787,2.976-3.071,4.592-3.851s3.413-1.17,5.391-1.17
			c4.337,0,7.265,1.513,8.787,4.535c0.836,1.655,1.255,4.022,1.255,7.103v19.597h-5.222V55.883c0-1.863-0.274-3.366-0.825-4.507
			c-0.915-1.901-2.568-2.853-4.965-2.853c-1.218,0-2.214,0.124-2.994,0.371c-1.409,0.419-2.645,1.255-3.71,2.51
			c-0.854,1.008-1.412,2.049-1.668,3.123c-0.257,1.075-0.384,2.61-0.384,4.607v16.002h-5.136V44.587z"/>
		<path fill="#4C4C4C" d="M254.644,36.059h5.189v8.528h4.877v4.193h-4.877v19.938c0,1.064,0.361,1.778,1.085,2.14
			c0.398,0.209,1.062,0.313,1.994,0.313c0.249,0,0.515-0.006,0.8-0.019s0.62-0.045,0.998-0.096v4.079
			c-0.589,0.171-1.202,0.295-1.838,0.37c-0.639,0.076-1.327,0.114-2.069,0.114c-2.396,0-4.021-0.612-4.878-1.84
			c-0.855-1.226-1.281-2.818-1.281-4.777V48.78h-4.138v-4.193h4.138V36.059z"/>
	</g>
	<g>
		<path fill="#4C4C4C" d="M53.932,92.801l-0.003-3.505c1.94-0.002,3.885-0.172,5.779-0.506l0.609,3.451
			C58.223,92.61,56.075,92.799,53.932,92.801z M47.546,92.255c-2.106-0.365-4.192-0.919-6.198-1.647l1.195-3.295
			c1.813,0.657,3.698,1.158,5.603,1.489L47.546,92.255z M66.512,90.579l-1.203-3.291c1.813-0.663,3.58-1.489,5.251-2.458
			l1.757,3.033C70.469,88.934,68.516,89.848,66.512,90.579z M35.532,87.901c-1.849-1.065-3.617-2.303-5.255-3.675l2.251-2.687
			c1.482,1.241,3.081,2.36,4.755,3.325L35.532,87.901z M77.563,84.179l-2.256-2.682c1.478-1.244,2.858-2.626,4.102-4.106
			l2.684,2.253C80.721,81.279,79.196,82.806,77.563,84.179z M25.738,79.701c-1.378-1.635-2.619-3.398-3.689-5.241l3.03-1.761
			c0.969,1.668,2.092,3.264,3.339,4.744L25.738,79.701z M85.774,74.393l-3.034-1.754c0.968-1.675,1.793-3.443,2.453-5.257
			l3.293,1.198C87.757,70.586,86.844,72.542,85.774,74.393z M19.324,68.656c-0.734-2.005-1.295-4.088-1.668-6.192l3.451-0.611
			c0.337,1.902,0.845,3.786,1.509,5.599L19.324,68.656z M90.294,62.385l-3.123-0.604C87.503,59.886,88,57.94,88,56l0,0h3v-0.02
			C91,58.143,90.66,60.29,90.294,62.385z M17,56.076V56c0-2.115,0.227-4.237,0.584-6.306l3.476,0.597
			c-0.324,1.873-0.521,3.793-0.521,5.709L17,56.076z M86.663,50.076c-0.342-1.903-0.854-3.786-1.521-5.596l3.288-1.213
			c0.738,2.001,1.305,4.084,1.684,6.188L86.663,50.076z M22.566,44.686l-3.296-1.191c0.725-2.007,1.634-3.965,2.7-5.819l3.039,1.748
			C24.043,41.1,23.222,42.87,22.566,44.686z M82.668,39.237c-0.973-1.666-2.1-3.26-3.35-4.736l2.676-2.265
			c1.38,1.632,2.625,3.393,3.701,5.233L82.668,39.237z M28.327,34.664l-2.688-2.247c1.368-1.638,2.889-3.167,4.52-4.546l2.261,2.679
			C30.944,31.797,29.566,33.182,28.327,34.664z M75.198,30.412c-1.486-1.239-3.088-2.354-4.762-3.314l1.745-3.04
			c1.85,1.061,3.62,2.293,5.262,3.663L75.198,30.412z M37.16,27.206l-1.764-3.029c1.848-1.076,3.799-1.995,5.801-2.729l1.208,3.29
			C40.596,25.4,38.832,26.231,37.16,27.206z M65.172,24.662c-1.817-0.653-3.704-1.15-5.608-1.478l0.594-3.455
			c2.106,0.362,4.192,0.912,6.201,1.635L65.172,24.662z M48.003,23.222l-0.615-3.45c2.095-0.373,4.244-0.566,6.383-0.572
			l0.011,3.505C51.844,22.709,49.899,22.884,48.003,23.222z"/>
	</g>
</g>
<g>
</g>
<g>
</g>
<g>
</g>
<g>
</g>
<g>
</g>
<g>
</g>
<g>
</g>
<g>
</g>
<g>
</g>
<g>
</g>
<g>
</g>
<g>
</g>
<g>
</g>
<g>
</g>
<g>
</g>
</svg>
